<?xml version="1.0" encoding="UTF-8"?>
<svg version="1.1" xmlns="http://www.w3.org/2000/svg" width="160" height="160">
<path d="M0 0 C8.00353868 5.27792413 12.90909259 11.07256346 15.984375 20.30859375 C16.83469592 24.75016367 17.22370447 29.21433314 17.5625 33.71875 C17.72034742 37.40416424 17.72034742 37.40416424 19.984375 40.30859375 C20.52837566 47.91065423 17.63241815 53.86543021 13.984375 60.30859375 C13.37529297 61.50548828 13.37529297 61.50548828 12.75390625 62.7265625 C10.1007906 67.85248497 7.14776391 71.33444979 2.984375 75.30859375 C2.02272431 78.19354581 1.75709414 80.29452729 1.671875 83.30859375 C1.61580078 84.60796875 1.61580078 84.60796875 1.55859375 85.93359375 C1.7691017 88.42650439 1.7691017 88.42650439 3.72265625 90.015625 C12.83464948 95.22472649 23.47314477 95.73807008 33.484375 93.05859375 C38.56597055 91.29190196 38.56597055 91.29190196 41.984375 87.30859375 C42.65728416 83.08905748 42.53074068 79.54510556 40.796875 75.62109375 C37.9942706 72.0453571 35.2026347 68.52685345 31.984375 65.30859375 C31.26894476 63.70446501 30.60803701 62.07557887 29.984375 60.43359375 C28.60046496 56.80658932 28.60046496 56.80658932 26.9296875 53.30859375 C25.81624901 50.95288918 25.34042214 48.74154282 24.859375 46.18359375 C24.69179687 45.31476563 24.52421875 44.4459375 24.3515625 43.55078125 C23.984375 41.30859375 23.984375 41.30859375 23.984375 39.30859375 C24.644375 39.30859375 25.304375 39.30859375 25.984375 39.30859375 C26.05914062 37.99246094 26.13390625 36.67632812 26.2109375 35.3203125 C27.04224023 23.39968086 28.78753817 15.18676014 36.109375 5.49609375 C45.57559854 -1.70646764 54.0974413 -4.20666373 65.984375 -2.69140625 C73.60290716 -0.86295853 80.03232328 2.93547458 84.453125 9.484375 C88.98775362 17.32770067 90.25681499 24.15412244 90.640625 33.1640625 C90.75723329 36.46729442 90.75723329 36.46729442 92.984375 39.30859375 C93.8473006 45.04805241 93.41194625 49.63129262 90.11328125 54.5390625 C88.85044155 56.51853096 88.04137077 58.50420826 87.171875 60.68359375 C85.26151941 65.12840516 82.62850842 68.63735696 79.5703125 72.36328125 C75.7772281 77.01588231 75.09543564 80.53207775 74.859375 86.43359375 C76.15498031 89.7445851 76.65181777 90.01127223 79.734375 91.49609375 C85.68123523 93.54917645 91.8542001 94.893938 97.984375 96.30859375 C97.984375 105.54859375 97.984375 114.78859375 97.984375 124.30859375 C47.164375 124.30859375 -3.655625 124.30859375 -56.015625 124.30859375 C-56.015625 115.06859375 -56.015625 105.82859375 -56.015625 96.30859375 C-47.328125 94.49609375 -47.328125 94.49609375 -44.6184082 93.94604492 C-40.1929649 92.99167378 -36.83038354 91.85419744 -33.015625 89.30859375 C-32.355625 89.30859375 -31.695625 89.30859375 -31.015625 89.30859375 C-30.60357435 81.67974965 -30.60357435 81.67974965 -32.015625 74.30859375 C-32.93794922 73.87353516 -32.93794922 73.87353516 -33.87890625 73.4296875 C-42.07525933 69.12922437 -46.14652108 55.15021901 -49.015625 46.93359375 C-50.21715306 42.71164986 -50.21715306 42.71164986 -48.703125 39.68359375 C-48.14625 38.89984375 -47.589375 38.11609375 -47.015625 37.30859375 C-46.95140745 35.34995846 -46.89492269 33.38783295 -46.97265625 31.4296875 C-47.0688992 26.67878552 -46.34538927 21.86778555 -45.015625 17.30859375 C-44.355625 17.30859375 -43.695625 17.30859375 -43.015625 17.30859375 C-42.7990625 16.16390625 -42.7990625 16.16390625 -42.578125 14.99609375 C-42.015625 12.30859375 -42.015625 12.30859375 -41.015625 9.30859375 C-40.355625 9.30859375 -39.695625 9.30859375 -39.015625 9.30859375 C-38.77328125 8.71304688 -38.5309375 8.1175 -38.28125 7.50390625 C-36.77252349 4.88691768 -35.28823821 3.82243431 -32.765625 2.18359375 C-32.01796875 1.68601562 -31.2703125 1.1884375 -30.5 0.67578125 C-21.53288174 -4.25895364 -9.12513057 -4.95707281 0 0 Z " fill="#5D83A4" transform="translate(59.015625,33.69140625)"/>
<path d="M0 0 C8.80395093 5.1476653 13.39078068 12.50154069 16.14453125 22.25390625 C16.49584139 25.87479598 16.64597788 29.47536586 16.80078125 33.109375 C16.91738954 36.41260692 16.91738954 36.41260692 19.14453125 39.25390625 C20.00745685 44.99336491 19.5721025 49.57660512 16.2734375 54.484375 C15.0105978 56.46384346 14.20152702 58.44952076 13.33203125 60.62890625 C11.42167566 65.07371766 8.78866467 68.58266946 5.73046875 72.30859375 C1.93738435 76.96119481 1.25559189 80.47739025 1.01953125 86.37890625 C2.31513656 89.6898976 2.81197402 89.95658473 5.89453125 91.44140625 C11.80257556 93.72254129 17.96085816 94.95208034 24.14453125 96.25390625 C24.14453125 104.50390625 24.14453125 112.75390625 24.14453125 121.25390625 C6.65453125 121.25390625 -10.83546875 121.25390625 -28.85546875 121.25390625 C-29.85546875 114.25390625 -29.85546875 114.25390625 -29.85546875 111.25390625 C-32.06301782 108.7120858 -32.06301782 108.7120858 -34.85546875 106.25390625 C-35.61859375 105.55265625 -36.38171875 104.85140625 -37.16796875 104.12890625 C-43.03946428 100.03251402 -49.4208247 98.83928103 -56.35546875 97.87890625 C-62.88799255 96.85791117 -67.64971238 95.57357643 -72.85546875 91.25390625 C-72.85546875 90.59390625 -72.85546875 89.93390625 -72.85546875 89.25390625 C-72.23671875 89.52203125 -71.61796875 89.79015625 -70.98046875 90.06640625 C-59.11222073 94.5763405 -47.92396245 96.4911771 -35.85546875 91.25390625 C-33.0993758 89.83346044 -33.0993758 89.83346044 -31.85546875 87.25390625 C-31.18255959 83.03436998 -31.30910307 79.49041806 -33.04296875 75.56640625 C-35.84557315 71.9906696 -38.63720905 68.47216595 -41.85546875 65.25390625 C-42.57089899 63.64977751 -43.23180674 62.02089137 -43.85546875 60.37890625 C-45.23937879 56.75190182 -45.23937879 56.75190182 -46.91015625 53.25390625 C-48.02359474 50.89820168 -48.49942161 48.68685532 -48.98046875 46.12890625 C-49.14804688 45.26007813 -49.315625 44.39125 -49.48828125 43.49609375 C-49.85546875 41.25390625 -49.85546875 41.25390625 -49.85546875 39.25390625 C-49.19546875 39.25390625 -48.53546875 39.25390625 -47.85546875 39.25390625 C-47.78070313 37.93777344 -47.7059375 36.62164062 -47.62890625 35.265625 C-46.79760352 23.34499336 -45.05230558 15.13207264 -37.73046875 5.44140625 C-26.41302383 -3.16969315 -13.34314524 -6.35071755 0 0 Z " fill="#6186A8" transform="translate(132.85546875,33.74609375)"/>
<path d="M0 0 C50.82 0 101.64 0 154 0 C154 0.99 154 1.98 154 3 C103.18 3 52.36 3 0 3 C0 2.01 0 1.02 0 0 Z " fill="#2D4B6D" transform="translate(3,155)"/>
<path d="M0 0 C5.28145104 3.53474805 10.29934679 7.43680354 12.99609375 13.3359375 C12.99609375 13.9959375 12.99609375 14.6559375 12.99609375 15.3359375 C9.88766266 13.99426425 8.25369203 12.66529048 6.24609375 9.9609375 C2.24607204 5.0878146 -2.86535716 2.57770506 -9.00390625 1.3359375 C-17.06907744 0.6001675 -25.08279787 1.17510509 -31.5625 6.3984375 C-35.09219693 9.83212667 -37.85816339 12.90203523 -40.00390625 17.3359375 C-42.12890625 19.0859375 -42.12890625 19.0859375 -44.00390625 20.3359375 C-44.33390625 19.3459375 -44.66390625 18.3559375 -45.00390625 17.3359375 C-44.34390625 17.3359375 -43.68390625 17.3359375 -43.00390625 17.3359375 C-42.78734375 16.19125 -42.78734375 16.19125 -42.56640625 15.0234375 C-42.00390625 12.3359375 -42.00390625 12.3359375 -41.00390625 9.3359375 C-40.34390625 9.3359375 -39.68390625 9.3359375 -39.00390625 9.3359375 C-38.7615625 8.74039063 -38.51921875 8.14484375 -38.26953125 7.53125 C-36.76080474 4.91426143 -35.27651946 3.84977806 -32.75390625 2.2109375 C-32.00625 1.71335937 -31.25859375 1.21578125 -30.48828125 0.703125 C-21.49898898 -4.24381257 -9.16834844 -4.88747497 0 0 Z " fill="#9ED1E7" transform="translate(59.00390625,33.6640625)"/>
<path d="M0 0 C4.97041492 2.9354262 8.76785634 5.94548242 11.15625 11.2734375 C9.83625 11.2734375 8.51625 11.2734375 7.15625 11.2734375 C5.48958333 9.60677083 3.82291667 7.94010417 2.15625 6.2734375 C-5.62914588 1.54936495 -13.18656685 0.07799605 -22.21484375 1.69921875 C-29.15795603 3.66061789 -34.62710193 7.82531828 -38.53125 13.8984375 C-38.964375 14.6821875 -39.3975 15.4659375 -39.84375 16.2734375 C-41.47211738 17.9775429 -43.13144752 19.65369191 -44.84375 21.2734375 C-44.84375 15.44923354 -41.2021404 10.0846247 -37.78125 5.5234375 C-26.44638161 -3.15858935 -13.40395888 -6.29986068 0 0 Z " fill="#95C6DE" transform="translate(132.84375,33.7265625)"/>
<path d="M0 0 C0.495 1.98 0.495 1.98 1 4 C-2.96 5.98 -6.92 7.96 -11 10 C-9.68 10.99 -8.36 11.98 -7 13 C-5.74095357 14.05176439 -4.49053298 15.11396184 -3.25 16.1875 C-2.32960938 16.98220703 -2.32960938 16.98220703 -1.390625 17.79296875 C-0.93171875 18.19128906 -0.4728125 18.58960938 0 19 C-0.33 19.66 -0.66 20.32 -1 21 C-1.61875 20.40251953 -1.61875 20.40251953 -2.25 19.79296875 C-2.8275 19.26316406 -3.405 18.73335937 -4 18.1875 C-4.8353125 17.40439453 -4.8353125 17.40439453 -5.6875 16.60546875 C-11.37677089 12.655654 -17.76638649 11.55753418 -24.5 10.625 C-31.0325238 9.60400492 -35.79424363 8.31967018 -41 4 C-41 3.34 -41 2.68 -41 2 C-40.38125 2.268125 -39.7625 2.53625 -39.125 2.8125 C-27.88048217 7.08541677 -17.77583485 8.86679981 -6.0703125 4.93359375 C-3.45166734 3.75273301 -1.73280048 2.28414608 0 0 Z " fill="#98D3E9" transform="translate(101,121)"/>
<path d="M0 0 C0.33 0 0.66 0 1 0 C0.52115902 4.88417798 -0.36768794 7.90529235 -3 12 C-3.59514713 13.41174435 -4.17719274 14.82904466 -4.75 16.25 C-6.68758483 20.7409912 -9.32209612 24.28761929 -12.4140625 28.0546875 C-14.1476757 30.11770036 -14.1476757 30.11770036 -16 33 C-16.99 33 -17.98 33 -19 33 C-18.875 30.8125 -18.875 30.8125 -18 28 C-16.57271442 26.87144861 -15.1424202 25.74631312 -13.69140625 24.6484375 C-9.54527096 20.60763129 -7.05425521 14.6749759 -4.953125 9.34375 C-4 7 -4 7 -2 4 C-1.34 4 -0.68 4 0 4 C0 2.68 0 1.36 0 0 Z " fill="#426487" transform="translate(151,78)"/>
<path d="M0 0 C1 3 1 3 0.1796875 5.1640625 C-0.25085938 5.97617188 -0.68140625 6.78828125 -1.125 7.625 C-1.59292969 8.50929688 -2.06085938 9.39359375 -2.54296875 10.3046875 C-3.02378906 11.19414063 -3.50460938 12.08359375 -4 13 C-4.40863281 13.80695313 -4.81726563 14.61390625 -5.23828125 15.4453125 C-7.57734457 19.94058077 -9.98294509 23.10746388 -13.70703125 26.515625 C-15.92091577 29.05724469 -16.34806951 31.74034757 -17 35 C-17.66 35 -18.32 35 -19 35 C-19.42288108 32.03983241 -19.52027415 29.84871933 -17.92333984 27.24365234 C-16.39412948 25.3418425 -14.81474002 23.50618002 -13.1875 21.6875 C-9.00993164 17.00803297 -6.30300018 13.1106514 -4.65234375 6.99755859 C-3.718947 4.13938037 -2.03167365 2.17178908 0 0 Z " fill="#3C5E81" transform="translate(77,81)"/>
<path d="M0 0 C3.59038379 2.99198649 5.32758761 5.40392133 6.9375 9.8125 C9.21005741 15.98612763 12.61058586 20.7363445 17.375 25.25 C19 27 19 27 19 31 C18.34 31 17.68 31 17 31 C15.60639308 29.42638552 14.28297912 27.79004275 13 26.125 C10.14925117 22.43096483 10.14925117 22.43096483 7 19 C6.28456976 17.39587126 5.62366201 15.76698512 5 14.125 C4.05060019 11.6402427 3.11424724 9.22602871 1.9140625 6.8515625 C0.80803714 4.61115215 0.40906631 2.45439786 0 0 Z " fill="#4A6D90" transform="translate(84,80)"/>
<path d="M0 0 C2.49612935 1.24806467 2.7237356 2.18992226 3.875 4.6875 C7.43119431 12.26530585 7.43119431 12.26530585 14 17 C16.67927341 21.01891012 16.15601248 23.24161923 16 28 C15.34 28.33 14.68 28.66 14 29 C13.90203125 28.30132812 13.8040625 27.60265625 13.703125 26.8828125 C13.55359375 25.97273438 13.4040625 25.06265625 13.25 24.125 C13.04117187 22.76761719 13.04117187 22.76761719 12.828125 21.3828125 C12.24958702 18.86516243 12.24958702 18.86516243 10.1171875 17.953125 C9.41851562 17.63859375 8.71984375 17.3240625 8 17 C6.3671875 14.9765625 6.3671875 14.9765625 4.875 12.625 C4.37742187 11.85414062 3.87984375 11.08328125 3.3671875 10.2890625 C1.05967913 6.42563419 0 4.63585475 0 0 Z " fill="#476A8D" transform="translate(15,89)"/>
<path d="M0 0 C-0.99355196 3.20144519 -1.95899878 3.97731848 -4.9375 5.625 C-11.30359829 8.0673396 -18.20161263 9.15952895 -25 9 C-25 8.34 -25 7.68 -25 7 C-23.75863281 6.74605469 -22.51726563 6.49210938 -21.23828125 6.23046875 C-19.5962517 5.88329679 -17.95433019 5.53561357 -16.3125 5.1875 C-15.08756836 4.9390332 -15.08756836 4.9390332 -13.83789062 4.68554688 C-9.28533672 3.70868308 -4.22134138 0 0 0 Z " fill="#8BC3DD" transform="translate(28,123)"/>
<path d="M0 0 C5.94 0 11.88 0 18 0 C18 0.66 18 1.32 18 2 C19.69099826 3.25835264 19.69099826 3.25835264 21.8125 4.4375 C24.59421869 6.05383563 26.81176681 7.63229027 29 10 C28.67 10.66 28.34 11.32 28 12 C27.5875 11.60167969 27.175 11.20335937 26.75 10.79296875 C18.75422314 3.45755739 10.5771293 2.37051218 0 1 C0 0.67 0 0.34 0 0 Z " fill="#7AB1CD" transform="translate(72,130)"/>
<path d="M0 0 C1.216875 0.433125 2.43375 0.86625 3.6875 1.3125 C9.68448771 3.32426904 15.82563257 4.65442688 22 6 C22 6.66 22 7.32 22 8 C15.27930296 7.58531869 8.10896352 7.04273375 2 4 C0.71875 1.89453125 0.71875 1.89453125 0 0 Z " fill="#8DC6DF" transform="translate(135,124)"/>
<path d="M0 0 C0.66 0.33 1.32 0.66 2 1 C1.16855469 1.77923828 1.16855469 1.77923828 0.3203125 2.57421875 C-0.76636719 3.62029297 -0.76636719 3.62029297 -1.875 4.6875 C-2.59429687 5.37199219 -3.31359375 6.05648437 -4.0546875 6.76171875 C-6.0937725 9.10789486 -6.923093 11.11542767 -8 14 C-10.125 15.8125 -10.125 15.8125 -12 17 C-12 13.62988351 -11.25715628 11.95572035 -9.8125 8.9375 C-9.20341797 7.62072266 -9.20341797 7.62072266 -8.58203125 6.27734375 C-6.65935959 3.50964602 -5.1413591 3.0471197 -2 2 C-1.34 1.34 -0.68 0.68 0 0 Z " fill="#83AECB" transform="translate(100,38)"/>
<path d="M0 0 C0.66 0.33 1.32 0.66 2 1 C1.06027344 1.90492187 1.06027344 1.90492187 0.1015625 2.828125 C-0.71570312 3.62734375 -1.53296875 4.4265625 -2.375 5.25 C-3.59316406 6.43335938 -3.59316406 6.43335938 -4.8359375 7.640625 C-6.77758083 9.7575069 -7.80712871 11.43753574 -9 14 C-11.125 15.75 -11.125 15.75 -13 17 C-13.33 16.01 -13.66 15.02 -14 14 C-13.34 14 -12.68 14 -12 14 C-11.87625 13.236875 -11.7525 12.47375 -11.625 11.6875 C-11 9 -11 9 -9 6 C-8.01 6 -7.02 6 -6 6 C-4.62131719 4.37064759 -3.28725907 2.70250393 -2 1 C-1.34 0.67 -0.68 0.34 0 0 Z " fill="#7FAAC7" transform="translate(28,37)"/>
<path d="M0 0 C0 0.33 0 0.66 0 1 C-0.95261719 1.21914063 -1.90523437 1.43828125 -2.88671875 1.6640625 C-10.98459627 3.38891549 -10.98459627 3.38891549 -17.375 8.25 C-17.91125 9.1575 -18.4475 10.065 -19 11 C-19.66 10.34 -20.32 9.68 -21 9 C-14.99226059 0.68159159 -9.84524072 -0.63065599 0 0 Z " fill="#96C7DF" transform="translate(40,34)"/>
<path d="M0 0 C2.04136395 -0.05451714 4.08315856 -0.09302485 6.125 -0.125 C7.83042969 -0.15980469 7.83042969 -0.15980469 9.5703125 -0.1953125 C13.05757767 0.00327891 15.7553862 0.7475199 19 2 C18.67 2.66 18.34 3.32 18 4 C11.73 3.34 5.46 2.68 -1 2 C-0.67 1.34 -0.34 0.68 0 0 Z " fill="#A4D8ED" transform="translate(112,31)"/>
<path d="M0 0 C0.33 0 0.66 0 1 0 C0.52345336 4.86077574 -0.38272901 7.91705726 -3 12 C-3.71143088 13.98451771 -4.38991336 15.98202112 -5 18 C-5.99 18 -6.98 18 -8 18 C-7.57316761 16.41375765 -7.13303842 14.8310902 -6.6875 13.25 C-6.32205078 11.92742187 -6.32205078 11.92742187 -5.94921875 10.578125 C-4.96807895 7.91330085 -3.906176 6.09728362 -2 4 C-1.34 4 -0.68 4 0 4 C0 2.68 0 1.36 0 0 Z " fill="#4E7395" transform="translate(151,78)"/>
<path d="M0 0 C1 3 1 3 0.07421875 5.33984375 C-0.38339844 6.19707031 -0.84101562 7.05429688 -1.3125 7.9375 C-1.98732422 9.21947266 -1.98732422 9.21947266 -2.67578125 10.52734375 C-3.11277344 11.34332031 -3.54976563 12.15929687 -4 13 C-4.32355469 13.74378906 -4.64710937 14.48757812 -4.98046875 15.25390625 C-6 17 -6 17 -9 18 C-8.69835937 17.43152344 -8.39671875 16.86304687 -8.0859375 16.27734375 C-7.02688351 14.05637801 -6.3193421 11.91917877 -5.625 9.5625 C-4.3819095 5.69935723 -2.80519743 2.99865932 0 0 Z " fill="#496C8F" transform="translate(77,81)"/>
<path d="M0 0 C3.98242235 2.16188642 7.0496862 4.54391812 10 8 C10 9.32 10 10.64 10 12 C9.34 12 8.68 12 8 12 C6.0546875 9.8828125 6.0546875 9.8828125 3.875 7.125 C3.15054688 6.22007813 2.42609375 5.31515625 1.6796875 4.3828125 C0 2 0 2 0 0 Z " fill="#426588" transform="translate(93,99)"/>
<path d="M0 0 C3 1 3 1 5 4 C5.25760279 6.69452521 5.08900053 9.28548375 5 12 C4.01 12.495 4.01 12.495 3 13 C2.87882812 12.28972656 2.75765625 11.57945313 2.6328125 10.84765625 C2.46523438 9.92855469 2.29765625 9.00945312 2.125 8.0625 C1.96257813 7.14597656 1.80015625 6.22945313 1.6328125 5.28515625 C1.42398437 4.53105469 1.21515625 3.77695313 1 3 C0.34 2.67 -0.32 2.34 -1 2 C-0.67 1.34 -0.34 0.68 0 0 Z " fill="#476A8D" transform="translate(26,105)"/>
<path d="M0 0 C10.50909091 4.01818182 10.50909091 4.01818182 12 7 C7.02125936 6.52583422 3.93281242 5.0900669 0 2 C0 1.34 0 0.68 0 0 Z " fill="#85BCD6" transform="translate(60,123)"/>
<path d="M0 0 C4.10334471 0.93257834 5.71602146 1.64129026 8.375 5 C10 8 10 8 10 10 C6.54804233 8.5741914 4.8985744 6.90253666 2.75 3.875 C1.96882813 2.78832031 1.96882813 2.78832031 1.171875 1.6796875 C0.78515625 1.12539063 0.3984375 0.57109375 0 0 Z " fill="#8BB9D4" transform="translate(62,39)"/>
<path d="M0 0 C0.33 0 0.66 0 1 0 C1 8.91 1 17.82 1 27 C0.67 27 0.34 27 0 27 C0 18.09 0 9.18 0 0 Z " fill="#4C7294" transform="translate(159,131)"/>
<path d="M0 0 C0.33 0 0.66 0 1 0 C1 8.91 1 17.82 1 27 C0.67 27 0.34 27 0 27 C0 18.09 0 9.18 0 0 Z " fill="#4B7092" transform="translate(0,131)"/>
<path d="M0 0 C0.66 0 1.32 0 2 0 C1.625 2.4375 1.625 2.4375 1 5 C0.01 5.495 0.01 5.495 -1 6 C-1 6.99 -1 7.98 -1 9 C-1.99 8.67 -2.98 8.34 -4 8 C-3.40312566 4.65750371 -2.26396123 2.53563658 0 0 Z " fill="#7099B9" transform="translate(13,70)"/>
<path d="M0 0 C-0.4640625 1.1446875 -0.4640625 1.1446875 -0.9375 2.3125 C-1.67893593 4.18789677 -2.36228217 6.08684652 -3 8 C-3.99 7.67 -4.98 7.34 -6 7 C-6 5.68 -6 4.36 -6 3 C-5.34 3 -4.68 3 -4 3 C-4 2.34 -4 1.68 -4 1 C-2 0 -2 0 0 0 Z " fill="#759EBD" transform="translate(89,70)"/>
<path d="M0 0 C8.19256018 0.19256018 8.19256018 0.19256018 11.5625 3.5625 C12.036875 4.366875 12.51125 5.17125 13 6 C8.31479085 4.78184562 4.29456388 3.30440013 0 1 C0 0.67 0 0.34 0 0 Z " fill="#96C7DF" transform="translate(54,35)"/>
<path d="M0 0 C0.33 1.32 0.66 2.64 1 4 C-2.96 5.98 -2.96 5.98 -7 8 C-7 7.01 -7 6.02 -7 5 C-6.030625 4.54625 -5.06125 4.0925 -4.0625 3.625 C-0.92920418 2.34213779 -0.92920418 2.34213779 0 0 Z " fill="#86BBD6" transform="translate(101,121)"/>
<path d="M0 0 C0.66 0.33 1.32 0.66 2 1 C1.34 3.97 0.68 6.94 0 10 C-0.33 10 -0.66 10 -1 10 C-1.02689216 8.52093108 -1.04634621 7.04172517 -1.0625 5.5625 C-1.07410156 4.73878906 -1.08570312 3.91507812 -1.09765625 3.06640625 C-1 1 -1 1 0 0 Z " fill="#486C8E" transform="translate(103,111)"/>
<path d="M0 0 C-3.44450737 2.29633824 -5.93812283 2.54016485 -10 3 C-10 2.34 -10 1.68 -10 1 C-6.61981469 -0.04005702 -3.5219721 -0.08004482 0 0 Z " fill="#92CCE4" transform="translate(13,129)"/>
<path d="M0 0 C0.33 0 0.66 0 1 0 C0.67 2.97 0.34 5.94 0 9 C-0.66 9 -1.32 9 -2 9 C-2.25 3.375 -2.25 3.375 0 0 Z " fill="#46698B" transform="translate(60,107)"/>
<path d="M0 0 C1.98 0.99 3.96 1.98 6 3 C6 4.32 6 5.64 6 7 C5.34 7 4.68 7 4 7 C0 2.52941176 0 2.52941176 0 0 Z " fill="#3C5E81" transform="translate(97,104)"/>
<path d="M0 0 C0.33 0 0.66 0 1 0 C0.50769231 6.52307692 0.50769231 6.52307692 -2.0625 8.9375 C-2.701875 9.288125 -3.34125 9.63875 -4 10 C-3.49396008 7.83125748 -3.00016187 6.00032373 -2 4 C-1.34 4 -0.68 4 0 4 C0 2.68 0 1.36 0 0 Z " fill="#486B8E" transform="translate(151,78)"/>
<path d="M0 0 C1.32 0.33 2.64 0.66 4 1 C4.33 2.65 4.66 4.3 5 6 C3.0625 5.25 3.0625 5.25 1 4 C0.25 1.875 0.25 1.875 0 0 Z " fill="#7AA4C2" transform="translate(147,70)"/>
<path d="M0 0 C0.66 0.99 1.32 1.98 2 3 C0.35 4.32 -1.3 5.64 -3 7 C-3.33 6.34 -3.66 5.68 -4 5 C-2.68 3.35 -1.36 1.7 0 0 Z " fill="#8CBCD6" transform="translate(23,38)"/>
<path d="M0 0 C4.46840411 0.49648935 5.68987756 0.68987756 9 4 C4.545 3.01 4.545 3.01 0 2 C0 1.34 0 0.68 0 0 Z " fill="#A3D8ED" transform="translate(52,32)"/>
<path d="M0 0 C3.82946843 1.45255699 5.12050295 3.42895561 7 7 C4.20171644 6.61402985 3.1794116 6.19863427 1.25 4.0625 C0 2 0 2 0 0 Z " fill="#3B5C7F" transform="translate(20,100)"/>
</svg>
